<svg width="112" height="112" viewBox="0 0 112 112" fill="none" xmlns="http://www.w3.org/2000/svg">
<path d="M54.6503 31.2887C54.9597 31.11 55.3409 31.11 55.6503 31.2887L76.3009 43.2113C76.6103 43.39 76.8009 43.7201 76.8009 44.0774V67.9226C76.8009 68.2799 76.6103 68.61 76.3009 68.7887L55.6503 80.7113C55.3409 80.89 54.9597 80.89 54.6503 80.7113L33.9996 68.7887C33.6902 68.61 33.4996 68.2799 33.4996 67.9226V44.0773C33.4996 43.7201 33.6902 43.39 33.9996 43.2113L54.6503 31.2887Z" fill="#405CFB"/>
<path d="M54.6649 0.269449C54.9668 0.101862 55.3338 0.101863 55.6356 0.26945L65.894 5.96431C66.2116 6.14063 66.4086 6.47534 66.4086 6.83861V18.1614C66.4086 18.5247 66.2116 18.8594 65.894 19.0357L55.6356 24.7306C55.3338 24.8981 54.9668 24.8981 54.6649 24.7306L44.4066 19.0357C44.0889 18.8594 43.8919 18.5247 43.8919 18.1614V6.83861C43.8919 6.47534 44.089 6.14063 44.4066 5.9643L54.6649 0.269449Z" fill="#405CFB"/>
<path d="M6.52721 26.8852C6.53428 26.5166 6.74356 26.1818 7.07179 26.014L17.1206 20.8761C17.4337 20.716 17.8078 20.7321 18.1059 20.9185L27.9925 27.0985C28.2906 27.2849 28.469 27.6141 28.4622 27.9657L28.2458 39.2497C28.2387 39.6183 28.0295 39.9531 27.7012 40.1209L17.6524 45.2588C17.3394 45.4189 16.9653 45.4028 16.6671 45.2164L6.78056 39.0364C6.48242 38.85 6.30405 38.5208 6.3108 38.1693L6.52721 26.8852Z" fill="#405CFB"/>
<rect x="54.1503" y="20" width="2.87" height="14" fill="#405CFB"/>
<path d="M56.6356 111.731C56.3338 111.898 55.9668 111.898 55.6649 111.731L45.4066 106.036C45.0889 105.859 44.8919 105.525 44.8919 105.161V93.8386C44.8919 93.4753 45.0889 93.1406 45.4066 92.9643L55.6649 87.2694C55.9668 87.1019 56.3338 87.1019 56.6356 87.2694L66.894 92.9643C67.2116 93.1406 67.4086 93.4753 67.4086 93.8386V105.161C67.4086 105.525 67.2116 105.859 66.894 106.036L56.6356 111.731Z" fill="#405CFB"/>
<rect x="57.1503" y="92" width="2.87" height="14" transform="rotate(-180 57.1503 92)" fill="#405CFB"/>
<rect x="26.1503" y="39.7027" width="2" height="14" transform="rotate(-58.3568 26.1503 39.7027)" fill="#405CFB"/>
<path d="M104.613 27.9705C104.909 28.1481 105.093 28.4658 105.099 28.8111L105.3 40.5424C105.307 40.9056 105.115 41.2437 104.801 41.4254L94.9971 47.0903C94.6825 47.2721 94.2942 47.2689 93.9826 47.0822L83.9194 41.0492C83.6232 40.8717 83.4396 40.5539 83.4337 40.2087L83.2322 28.4774C83.226 28.1142 83.4172 27.7761 83.7318 27.5944L93.5355 21.9295C93.8501 21.7477 94.2384 21.7508 94.55 21.9376L104.613 27.9705Z" fill="#405CFB"/>
<rect x="87.2721" y="37.3964" width="2" height="14" transform="rotate(59.9794 87.2721 37.3964)" fill="#405CFB"/>
<path d="M104.613 85.0492C104.909 84.8717 105.093 84.5539 105.099 84.2087L105.3 72.4774C105.307 72.1142 105.115 71.7761 104.801 71.5944L94.9971 65.9295C94.6825 65.7477 94.2942 65.7508 93.9826 65.9376L83.9194 71.9706C83.6232 72.1481 83.4396 72.4658 83.4337 72.8111L83.2322 84.5424C83.226 84.9056 83.4172 85.2437 83.7318 85.4254L93.5355 91.0903C93.8501 91.2721 94.2384 91.2689 94.55 91.0822L104.613 85.0492Z" fill="#405CFB"/>
<rect width="2" height="14" transform="matrix(0.500311 -0.865846 -0.865846 -0.500311 87.2721 75.6234)" fill="#405CFB"/>
<path d="M7.13041 84.0492C6.83427 83.8717 6.65067 83.5539 6.64474 83.2087L6.44325 71.4774C6.43701 71.1142 6.62824 70.7761 6.94279 70.5944L16.7466 64.9295C17.0611 64.7477 17.4495 64.7508 17.7611 64.9376L27.8243 70.9706C28.1204 71.1481 28.304 71.4658 28.3099 71.8111L28.5114 83.5424C28.5177 83.9056 28.3264 84.2437 28.0119 84.4254L18.2081 90.0903C17.8936 90.2721 17.5052 90.2689 17.1936 90.0822L7.13041 84.0492Z" fill="#405CFB"/>
<rect x="24.4716" y="74.6234" width="2" height="14" transform="rotate(-120.021 24.4716 74.6234)" fill="#405CFB"/>
</svg>
