<svg width="70" height="70" viewBox="0 0 70 70" fill="none" xmlns="http://www.w3.org/2000/svg">
<path d="M34.1405 19.3051C34.4559 19.1171 34.849 19.1171 35.1644 19.3051L47.5878 26.7091C47.8905 26.8895 48.0759 27.2158 48.0759 27.5681V42.4319C48.0759 42.7842 47.8905 43.1105 47.5878 43.2909L35.1644 50.6949C34.849 50.8829 34.4559 50.8829 34.1405 50.6949L21.7171 43.2909C21.4145 43.1105 21.2291 42.7842 21.2291 42.4319V27.5681C21.2291 27.2158 21.4145 26.8895 21.7171 26.7091L34.1405 19.3051Z" fill="#F2F2F2"/>
<path d="M33.6525 0.288675C33.9619 0.110042 34.3431 0.110042 34.6525 0.288675L40.5807 3.71132C40.8901 3.88996 41.0807 4.22008 41.0807 4.57735V11.4226C41.0807 11.7799 40.8901 12.11 40.5807 12.2887L34.6525 15.7113C34.3431 15.89 33.9619 15.89 33.6525 15.7113L27.7243 12.2887C27.4149 12.11 27.2243 11.7799 27.2243 11.4226V4.57735C27.2243 4.22008 27.4149 3.88996 27.7243 3.71132L33.6525 0.288675Z" fill="#F2F2F2"/>
<path d="M4.0752 17.0277C4.08227 16.6591 4.29155 16.3243 4.61978 16.1565L10.5111 13.1443C10.8242 12.9842 11.1983 13.0003 11.4964 13.1867L17.3151 16.8239C17.6132 17.0102 17.7916 17.3395 17.7848 17.691L17.6579 24.3065C17.6509 24.6751 17.4416 25.0099 17.1134 25.1777L11.222 28.19C10.909 28.35 10.5348 28.3339 10.2367 28.1475L4.41808 24.5104C4.11994 24.324 3.94158 23.9948 3.94832 23.6432L4.0752 17.0277Z" fill="#F2F2F2"/>
<rect x="34.1525" y="13" width="1" height="8" fill="#F2F2F2"/>
<path d="M35.6525 69.7113C35.3431 69.89 34.9619 69.89 34.6525 69.7113L28.7243 66.2887C28.4149 66.11 28.2243 65.7799 28.2243 65.4226V58.5774C28.2243 58.2201 28.4149 57.89 28.7243 57.7113L34.6525 54.2887C34.9619 54.11 35.3431 54.11 35.6525 54.2887L41.5807 57.7113C41.8901 57.89 42.0807 58.2201 42.0807 58.5774V65.4226C42.0807 65.7799 41.8901 66.11 41.5807 66.2887L35.6525 69.7113Z" fill="#F2F2F2"/>
<rect x="36.1525" y="58" width="2" height="9" transform="rotate(-180 36.1525 58)" fill="#F2F2F2"/>
<rect x="16.3439" y="24.8142" width="1.25" height="8.75" transform="rotate(-58.3568 16.3439 24.8142)" fill="#F2F2F2"/>
<path d="M65.2047 17.3745C65.5009 17.5521 65.6845 17.8698 65.6904 18.2151L65.809 25.1183C65.8152 25.4815 65.624 25.8196 65.3094 26.0013L59.5643 29.321C59.2498 29.5028 58.8614 29.4996 58.5498 29.3128L52.6282 25.7628C52.332 25.5853 52.1484 25.2675 52.1425 24.9223L52.0239 18.0191C52.0177 17.6558 52.2089 17.3178 52.5235 17.136L58.2686 13.8163C58.5831 13.6346 58.9715 13.6377 59.2831 13.8245L65.2047 17.3745Z" fill="#F2F2F2"/>
<rect x="54.545" y="23.3728" width="1.25" height="8.75" transform="rotate(59.9794 54.545 23.3728)" fill="#F2F2F2"/>
<path d="M65.2047 53.2629C65.5009 53.0854 65.6845 52.7676 65.6904 52.4224L65.809 45.5192C65.8152 45.1559 65.624 44.8179 65.3094 44.6361L59.5643 41.3164C59.2498 41.1347 58.8614 41.1378 58.5498 41.3246L52.6282 44.8746C52.332 45.0522 52.1484 45.3699 52.1425 45.7152L52.0239 52.6184C52.0177 52.9816 52.2089 53.3197 52.5235 53.5014L58.2686 56.8211C58.5831 57.0029 58.9715 56.9997 59.2831 56.8129L65.2047 53.2629Z" fill="#F2F2F2"/>
<rect width="1.25" height="8.75" transform="matrix(0.500311 -0.865846 -0.865846 -0.500311 54.545 47.2646)" fill="#F2F2F2"/>
<path d="M4.63504 52.6379C4.33891 52.4604 4.1553 52.1426 4.14937 51.7974L4.03081 44.8942C4.02457 44.5309 4.2158 44.1929 4.53035 44.0111L10.2755 40.6914C10.59 40.5097 10.9784 40.5128 11.29 40.6996L17.2116 44.2496C17.5077 44.4272 17.6913 44.7449 17.6973 45.0902L17.8158 51.9934C17.8221 52.3566 17.6308 52.6947 17.3163 52.8764L11.5712 56.1961C11.2566 56.3779 10.8683 56.3747 10.5567 56.1879L4.63504 52.6379Z" fill="#F2F2F2"/>
<rect x="15.2947" y="46.6396" width="1.25" height="8.75" transform="rotate(-120.021 15.2947 46.6396)" fill="#F2F2F2"/>
</svg>
